<svg xmlns="http://www.w3.org/2000/svg" xmlns:xlink="http://www.w3.org/1999/xlink" version="1.1" x="0px" y="0px" viewBox="0 0 59 66.25" style="enable-background:new 0 0 59 53;" xml:space="preserve"><g><g><path d="M57.6,4.3L53.2,0l-18,17.7L34.6,17L0,51.1l0.7,0.7c3.1,3,10.5-0.5,16.2-4c7.7-4.8,16.9-12.3,26-21.2l0.7-0.7l-0.7-0.7    l14.5-14.3c0.9-0.9,1.5-2.1,1.5-3.3c0-0.1,0-0.1,0-0.2C59,6.3,58.5,5.2,57.6,4.3z M34.6,19.8l3.4,3.4c-7.8,7.6-15.5,14.1-22,18.5    c-3.8,2.6-6.6,4-8.4,4.7L34.6,19.8z M15.9,46.1C9.1,50.3,5,51.4,3.1,50.9L5,49c1.8,0.1,5.3-1,12.1-5.7    c6.5-4.5,14.4-11.1,22.3-18.7l1.3,1.3C32.1,34.4,23.2,41.6,15.9,46.1z M56,9.5L41.5,23.8l-4.8-4.7L53.2,2.8l3,2.9    C56.7,6.2,57,6.9,57,7.6C56.9,8.3,56.6,9,56,9.5z M52,10h2V5h-2V10z M49,13h2V8h-2V13z M46,16h2v-5h-2V16z M43,19h2v-5h-2V19z     M40,22h2v-5h-2V22z M45.3,43.5l-2.9-2.8c0,0,0,0,0,0c-0.6-0.6-1.4-0.8-2.3-0.8c-1.6,0-3.4,0.9-4.8,2.4c-1.1,1.1-1.8,2.4-2.1,3.6    c-0.3,1.4,0,2.7,0.8,3.5c0,0,0,0,0,0l2.9,2.8c0,0,0,0,0,0l0.7,0.7l0.1-0.1c0.4,0.2,0.9,0.3,1.4,0.3c1.5,0,3.4-0.8,4.9-2.4    C46.3,48.2,46.9,45.1,45.3,43.5L45.3,43.5z M36.2,48.2c-0.4,0-0.7-0.1-0.9-0.3c-0.3-0.3-0.4-0.9-0.2-1.6c0.2-0.9,0.8-1.9,1.6-2.7    c1-1.1,2.4-1.8,3.4-1.8c0.4,0,0.7,0.1,0.9,0.3c0.7,0.7,0.3,2.6-1.4,4.3C38.6,47.5,37.2,48.2,36.2,48.2z M42.5,49.2    c-1.6,1.6-3.6,2.1-4.3,1.5l0,0L37.5,50c1.2-0.3,2.5-1.1,3.5-2.2c1.1-1.1,1.8-2.4,2.1-3.6l0.7,0.7l0.7-0.7L43.9,45    C44.5,45.6,44.1,47.6,42.5,49.2z M1.3,31.7c1.2,2.5,3.2,4,5,4c0.4,0,0.8-0.1,1.2-0.3c0,0,0,0,0,0l3.7-1.7c0.1-0.1,0.2-0.1,0.3-0.2    c0.2,0,0.4-0.1,0.6-0.2c2.1-0.9,2.6-4.1,1.1-7.1c-1.1-2.4-3.1-4-5-4c-0.4,0-0.9,0.1-1.2,0.3c-0.2,0.1-0.3,0.2-0.5,0.3    c-0.1,0-0.3,0-0.4,0.1l-3.7,1.7c0,0,0,0,0,0s0,0,0,0L1.5,25c-0.4,0.2-0.6,0.7-0.5,1.1C0.3,27.5,0.4,29.6,1.3,31.7z M7.9,24.3    c0.1-0.1,0.2-0.1,0.4-0.1c0.9,0,2.3,1,3.1,2.9c1,2.1,0.7,4.1-0.1,4.5c-0.8,0.4-2.5-0.6-3.5-2.8C6.8,26.7,7,24.7,7.9,24.3z     M3.3,26.4l1.8-0.8c-0.1,1.2,0.1,2.6,0.8,4.1c0.6,1.4,1.6,2.5,2.6,3.2l-1.8,0.8c0,0,0,0,0,0c-0.9,0.4-2.6-0.7-3.5-2.8    C2.2,28.8,2.4,26.8,3.3,26.4z M15.9,10.7c0.6,0.8,1.5,1.5,2.6,1.9c0.7,0.3,1.4,0.4,2,0.4c1.6,0,3-0.7,3.4-2l1.1-3    c0-0.1,0-0.2,0-0.3c0.1-0.2,0.2-0.3,0.2-0.5c0.3-0.9,0.2-2-0.5-2.9c-0.6-0.8-1.5-1.5-2.6-1.9C21.6,2.1,21,2,20.3,2    c-1.7,0-3,0.8-3.5,2c-0.1,0.2-0.1,0.3-0.1,0.5c-0.1,0.1-0.1,0.2-0.2,0.3l-1.4,3.8c-0.1,0.4,0,0.8,0.3,1.1    C15.5,10,15.7,10.3,15.9,10.7z M18.7,4.7C18.9,4.3,19.5,4,20.3,4c0.4,0,0.9,0.1,1.3,0.2c0.7,0.3,1.3,0.7,1.7,1.2    c0.2,0.2,0.4,0.7,0.3,1c-0.2,0.7-1.7,0.9-2.9,0.5C19.3,6.4,18.5,5.3,18.7,4.7z M17.3,8.5L17.3,8.5l0.4-1.1    c0.6,0.6,1.3,1.1,2.2,1.4c0.7,0.2,1.4,0.4,2,0.4c0.2,0,0.4,0,0.6,0l-0.4,1.1c0,0,0,0,0,0c-0.2,0.6-1.5,1-2.9,0.5    c-0.7-0.3-1.3-0.7-1.7-1.2C17.4,9.3,17.2,8.9,17.3,8.5z"/></g></g><text x="0" y="68" fill="#000000" font-size="5px" font-weight="bold" font-family="'Helvetica Neue', Helvetica, Arial-Unicode, Arial, Sans-serif">Created by retinaicon</text><text x="0" y="73" fill="#000000" font-size="5px" font-weight="bold" font-family="'Helvetica Neue', Helvetica, Arial-Unicode, Arial, Sans-serif">from the Noun Project</text></svg>